<?xml version="1.0" encoding="utf-8"?>
<!-- Generator: Adobe Illustrator 19.1.0, SVG Export Plug-In . SVG Version: 6.00 Build 0)  -->
<svg version="1.1" id="Layer_1" xmlns="http://www.w3.org/2000/svg" xmlns:xlink="http://www.w3.org/1999/xlink" x="0px" y="0px"
	 viewBox="0 0 387.8 101.7" style="enable-background:new 0 0 387.8 101.7;" xml:space="preserve">
<style type="text/css">
	.st0{fill:#515252;}
	.st1{fill:#8C8B8B;}
	.st2{fill:#70C1C5;}
	.st3{fill:#E3E4F2;}
</style>
<g>
	<g>
		<g>
			<g>
				<path class="st0" d="M218.8,9.5c1.1,0,2-0.2,2.8-0.5c0.8-0.3,1.4-0.7,1.9-1.2c0.5-0.5,0.8-1.1,1-1.7c0.2-0.7,0.3-1.4,0.3-2.1
					c0-0.7-0.1-1.4-0.4-1.9c-0.3-0.5-0.6-0.9-1-1.2c-0.5-0.3-1-0.6-1.6-0.7c-0.7-0.2-1.4-0.3-2.1-0.3c-1.2,0-2.2,0.2-3,0.5
					c-0.8,0.4-1.4,0.8-1.8,1.3c-0.5,0.5-0.8,1.1-1,1.6c-0.2,0.6-0.3,1.1-0.3,1.6c0,1.4,0.4,2.5,1.2,3.3C215.6,9.1,217,9.5,218.8,9.5
					z"/>
			</g>
			<g>
				<path class="st0" d="M387.6,39.6c-0.2-0.4-0.5-0.9-0.8-1.2c-0.8-0.7-2-1.1-2.9-0.4c-1,0.6-1.5,1.9-2.2,2.7c-0.6,0.7-1.3,1.3-2,2
					c-0.7,0.6-1.4,1.2-2.1,1.7c-0.7,0.5-1.4,0.9-2.1,1.3c-0.3,0.1-0.6,0.3-0.9,0.3c-0.8,0.2-1.8,0.1-2.5-0.4
					c-0.8-0.5-1.3-1.3-1.5-2.2c-0.1-0.7-0.2-1.5-0.2-2.4c0-1.6,0.1-3.3,0.4-5.1c0.3-1.8,0.6-3.5,0.9-5.3c0.3-1.7,0.7-3.5,0.9-5.1
					c0.3-1.6,0.4-3.1,0.4-4.4c0-0.8-0.1-1.4-0.2-1.8c-0.1-0.4-1.1-2.1-1.7-2.5c-2.3-1.5-5.1-2-7.9-2c-0.2,0-0.3,0-0.5,0
					c-1.8,0-3.7,0.4-5.5,1.2c-1.8,0.8-3.6,1.9-5.2,3.3c-1.7,1.4-3.2,3-4.6,4.9c-1.4,1.9-2.6,3.9-3.7,6c-1,2.1-1.8,4.3-2.4,6.5
					c-0.5,2-0.8,3.9-0.9,5.8l0,0.4l-0.3,0.3l-0.2,0.2c-0.7,0.6-1.4,1.1-2,1.5c-0.7,0.4-1.3,0.8-1.9,1.1c-0.7,0.3-1.3,0.5-1.8,0.5
					c-0.9,0-2.2-0.4-2.9-2.3c-0.5-1.2-0.7-2.8-0.7-4.7c0-1.1,0.1-2.3,0.2-3.6c0.1-1.3,0.3-2.6,0.5-3.9c0.2-1.3,0.4-2.6,0.7-3.8
					l0.7-3.4c0.2-1,0.4-1.9,0.5-2.6c0.1-0.9,0.2-1.3,0.2-1.4c0-1.9-0.4-3.4-1.1-4.5c-0.7-1-1.6-1.4-2.7-1.4c-1.3,0-2.5,0.3-3.5,0.8
					c-1,0.5-1.9,1.4-2.8,2.8c-0.2,0.3-0.5,0.9-0.9,1.6c-0.4,0.7-0.8,1.5-1.3,2.4c-0.5,0.9-1,1.9-1.6,2.9c-0.6,1-1.1,2-1.6,2.9
					l-1.3,2.4c-0.4,0.7-0.6,1.2-0.8,1.5l-0.2,0.4c0,0-0.3,0.7-0.8,0.7c-0.8,0-1.3-0.7-1.4-1.4v-0.1c0-0.2,0-0.7,0.1-1.3
					c0.1-0.6,0.2-1.3,0.3-2.1c0.1-0.8,0.3-1.6,0.4-2.6c0.1-0.9,0.3-1.8,0.4-2.7c0.1-0.9,0.2-1.7,0.3-2.4c0.1-0.7,0.1-1.2,0.1-1.6
					c0-1.4-0.3-2.5-0.8-3.3c-0.4-0.7-1.2-1-2.5-1c-1.3,0-2.3,0.4-3.1,1.1c-0.8,0.8-1.3,1.7-1.6,2.9c-0.4,1.7-0.8,3.7-1.2,6
					c-0.4,2.4-0.8,4.9-1.2,7.4c-0.3,2.5-0.6,5.1-0.9,7.5l-0.1,0.6l-0.2,0.2c-0.4,0.4-0.9,0.8-1.3,1.2c-0.7,0.6-1.3,1.1-2,1.7
					c-0.7,0.6-1.4,1.1-2,1.5c-0.7,0.4-1.3,0.8-1.9,1.1c-0.7,0.3-1.3,0.5-1.8,0.5c-0.9,0-2.2-0.4-2.9-2.3c-0.5-1.2-0.7-2.8-0.7-4.7
					c0-1.1,0.1-2.3,0.2-3.6c0.1-1.3,0.3-2.6,0.5-3.9c0.2-1.3,0.4-2.6,0.7-3.8l0.7-3.4c0.2-1,0.4-1.9,0.5-2.6
					c0.1-0.9,0.2-1.3,0.2-1.4c0-1.9-0.4-3.4-1.1-4.5c-0.7-1-1.6-1.4-2.7-1.4c-1.3,0-2.5,0.3-3.5,0.8c-1,0.5-1.9,1.4-2.8,2.8
					c-0.2,0.3-0.5,0.9-0.9,1.6c-0.4,0.7-0.8,1.5-1.3,2.4c-0.5,0.9-1,1.9-1.6,2.9c-0.6,1-1.1,2-1.6,2.9l-1.3,2.4
					c-0.4,0.7-0.6,1.2-0.8,1.5l-1.3,1.9c-0.8,1.1-1.2-0.5-1.2-1.8v-0.5c0-0.2,0-0.7,0.1-1.3c0.1-0.6,0.2-1.3,0.3-2.1
					c0.1-0.8,0.3-1.6,0.4-2.6c0.1-0.9,0.3-1.8,0.4-2.7c0.1-0.9,0.2-1.7,0.3-2.4c0.1-0.7,0.1-1.2,0.1-1.6c0-1.4-0.3-2.5-0.8-3.3
					c-0.4-0.7-1.2-1-2.5-1c-1.3,0-2.3,0.4-3.1,1.1c-0.8,0.8-1.3,1.7-1.6,2.9c-0.4,1.7-0.8,3.7-1.2,6c-0.4,2.4-0.8,4.9-1.2,7.4
					c-0.1,1.1-0.3,2.1-0.4,3.1l-0.2,1.5l-0.2,0.2c-1,0.9-2.1,1.8-3.2,2.7c-1.6,1.2-3.4,2.4-5.2,3.4c-1.8,1-3.7,1.9-5.7,2.6
					c-2,0.7-3.9,1.1-5.7,1.1c-0.6,0-1.2-0.1-1.7-0.2c-0.6-0.1-1.1-0.4-1.6-0.7c-0.5-0.3-1-0.8-1.5-1.4c-0.4-0.5-0.9-1.2-1.3-2
					l-0.5-1l1.1-0.3c2.4-0.7,4.7-1.6,6.7-2.8c2.1-1.2,3.8-2.5,5.3-4.1c1.5-1.5,2.6-3.1,3.5-4.8c0.8-1.6,1.2-3.3,1.2-4.9
					c0-1.5-0.3-2.9-0.8-4.1c-0.5-1.2-1.2-2.2-2.2-3.1c-0.9-0.8-2-1.5-3.3-2c-1.3-0.5-2.7-0.7-4.2-0.7c-1.8,0-3.5,0.3-5,1
					c-1.5,0.7-2.9,1.6-4.1,2.7c-1.2,1.1-2.3,2.5-3.3,3.9c-0.9,1.5-1.7,3.1-2.3,4.8c-0.6,1.7-1.1,3.4-1.4,5.1
					c-0.3,1.7-0.5,3.4-0.5,4.9c0,1.2,0.1,2.4,0.3,3.6l0.1,0.5l-0.6,0.5c-0.8,0.7-1.6,1.4-2.4,2c-1.3,1-2.6,1.9-3.9,2.7
					c-2.8,1.6-5.6,1.6-6.4-0.5c-0.3-0.9-0.5-2-0.5-3.4c0-1.4,0.1-2.9,0.4-4.6c0.3-1.6,0.6-3.4,1.1-5.1c0.4-1.7,0.9-3.5,1.4-5.2
					c0.5-1.7,0.9-3.3,1.4-4.8c0.4-1.5,0.8-2.8,1.1-4c0.3-1.1,0.4-2,0.4-2.5c0-0.5-0.1-0.9-0.4-1.2c-0.1-0.1-0.5-0.4-1.8-0.4
					c-0.6,0-1.3,0.1-2,0.2c-0.8,0.1-1.5,0.4-2.2,0.7c-0.7,0.3-1.3,0.7-1.8,1.1c-0.5,0.4-0.8,0.9-0.9,1.5c-0.5,2.1-1.1,4.5-1.8,7
					c-0.7,2.5-1.3,5.1-1.9,7.6c-0.4,1.9-0.9,3.8-1.2,6l-0.1,0.4l-0.4,0.2c-1.2,0.6-2.4,1.2-3.5,1.8l-3.7,1.7c-0.7,0.3-1.4,0.7-2,1.1
					c-0.5,0.3-1.1,0.3-1.7,0c-0.5-0.3-0.9-0.8-0.9-1.4c0-1.2-0.1-2.3-0.2-3.2c-0.1-1.3-0.3-2.5-0.5-3.5c-0.2-1-0.4-1.9-0.6-2.7
					c-0.2-0.8-0.4-1.5-0.7-2.2c-0.2-0.7-0.4-1.5-0.5-2.2c-0.1-0.8-0.2-1.6-0.2-2.6l0-0.2c0.1-0.5,0.5-1,1.2-1.8
					c0.6-0.6,1.2-1.3,1.8-2.1c0.6-0.7,1.2-1.5,1.7-2.3c0.4-0.7,0.7-1.3,0.7-1.8c0-0.3,0-0.7-0.1-1.1c0-0.3-0.2-0.6-0.4-0.9
					c-0.2-0.3-0.7-0.6-1.3-0.8c-0.6-0.3-1.6-0.4-2.8-0.4c-0.7,0-1.4,0.1-2,0.3c-0.6,0.2-1.2,0.5-1.6,0.8c-0.5,0.3-1,0.7-1.4,1.2
					c-0.4,0.5-0.8,0.9-1.2,1.4c-1.8,2.3-3.3,4.2-4.5,5.7c-1.1,1.5-2.1,2.8-2.9,3.9l-2.1,2.7c-0.6,0.8-1.3,1.6-2,2.4
					c-0.7,0.8-1.6,1.6-2.6,2.6c-1,0.9-2.3,2.1-3.9,3.4c-0.2,0.2-0.6,0.5-1.1,0.8c-0.4,0.3-0.9,0.7-1.3,1.1c-0.1,0.1-0.2,0.2-0.3,0.3
					c-0.8,0.9-1.3,2.1-1.1,3.4c0,0.3,0.1,0.5,0.1,0.6c0.1,0.2,0.2,0.4,0.4,0.5c0.2,0.1,0.4,0.2,0.6,0.2c0.7,0.1,1.5,0.1,2.3,0
					c1.9-0.1,3.3-1.4,4.6-2.6c1.5-1.5,3-3,4.4-4.5l6.1-6.1c0.5-0.5,1-1,1.5-1.5l0.4,1.4c0.1,0.5,0.3,1,0.5,1.7
					c0.2,0.7,0.4,1.4,0.5,2.1c0.2,0.8,0.3,1.5,0.4,2.4c0.1,0.8,0.2,1.7,0.2,2.5c0,0.9-0.1,1.9-0.3,2.7c-0.2,0.9-0.5,1.8-1,2.5
					c-0.5,0.7-1.2,1.3-2.1,1.8c-0.8,0.4-1.9,0.7-3.2,0.7c-0.4,0-0.8-0.1-1.2-0.1c-0.7,0.1-1.3,0.1-2,0c-1.2-0.1-2.3-0.4-3.2,0.6
					c-0.5,0.6-0.9,1.4-1.1,2.1c0,0.1-0.1,0.2,0,0.3c0,0.1,0.1,0.2,0.3,0.3c1.3,0.9,2.8,1.5,4.3,1.9c3.4,0.7,7.4,0.6,11.8-0.3
					c2.6-0.5,5.1-1.2,7.6-2.1c2.5-0.9,4.9-1.9,7.2-3.1c0.1-0.1,0.3-0.2,0.4-0.2l1.5-0.8l0.2,1.2c0.1,0.5,0.1,0.8,0.2,1
					c0.2,0.9,0.6,1.7,1.2,2.4c0.5,0.6,1.2,1.1,2.1,1.5c1.9,0.8,5.1,0.8,8.4-0.3c1.8-0.6,3.6-1.3,5.3-2.2c1.7-0.9,3.4-1.9,4.8-2.9
					c0.6-0.4,1.2-0.9,1.8-1.3l0.8-0.6L231,47c0.4,0.8,0.9,1.4,1.3,1.9c1.3,1.5,2.9,2.8,4.7,3.7c1.9,0.9,4.1,1.4,6.7,1.4
					c1.6,0,3.3-0.2,4.9-0.6c1.6-0.4,3.2-0.9,4.7-1.5c1.5-0.6,3-1.3,4.3-2.2c1.4-0.8,2.7-1.7,3.9-2.5c0.2-0.1,0.3-0.2,0.5-0.4
					c0.1-0.1,0.3-0.2,0.5-0.4l1.3-1l0.1,1.6c0,0.6,0.1,1.3,0.1,1.9c0.1,1,0.4,1.9,0.7,2.6c0.3,0.7,0.8,1.3,1.4,1.7
					c0.6,0.4,1.3,0.6,2.3,0.6c0.8,0,1.5-0.2,2-0.5c0.6-0.3,1.1-1,1.6-2l11.4-22.6c0.4-0.8,1.1-1.4,1.8-1.4c0.7,0,0.5,1.2,0.5,1.2
					l-0.1,1c-0.3,2.3-0.6,4.4-0.9,6.4c-0.2,1.9-0.3,3.8-0.3,5.5c0,4.2,0.5,7.5,1.5,9.6c0.9,1.9,2,2.9,3.2,2.9c1.5,0,2.9-0.2,4.2-0.6
					c1.4-0.4,2.7-1,4-1.7c1.3-0.7,2.5-1.5,3.7-2.3l2.5-1.9l0.2,1.5c0.1,1.1,0.4,2,0.7,2.7c0.3,0.7,0.8,1.3,1.4,1.7
					c0.6,0.4,1.3,0.6,2.3,0.6c0.8,0,1.5-0.2,2-0.5c0.6-0.3,1.1-1,1.6-2l11.5-22.8h0c0.4-0.7,0.9-0.8,1.5-0.8c0.6,0,0.6,0.4,0.7,0.8
					l-0.1,1c-0.3,2.3-0.6,4.4-0.9,6.4c-0.2,1.9-0.3,3.8-0.3,5.5c0,4.2,0.5,7.5,1.5,9.6c0.9,1.9,2,2.9,3.2,2.9c1.5,0,2.9-0.2,4.2-0.6
					c1.4-0.4,2.7-1,4-1.7c1.3-0.7,2.5-1.5,3.7-2.3l1.1-0.8l0.5,0.8c0.4,0.7,0.8,1.2,1.3,1.7c0.9,1,2,1.7,3.2,2.2
					c2.3,1,4.8,1,7.3,0.2c1.2-0.4,2.4-0.9,3.6-1.6c1.1-0.6,2.2-1.4,3.2-2.2c0.6-0.5,1.1-1,1.6-1.5c0.4-0.4,0.9-0.6,1.5-0.5
					c0.5,0.1,1,0.5,1.2,0.9c0.8,1.7,1.6,3,2.6,3.9c1.1,1.1,2.4,1.6,4.1,1.6c1.4,0,2.9-0.4,4.3-1.1c1.5-0.7,2.9-1.7,4.2-2.7
					c1.3-1.1,2.5-2.2,3.6-3.4c0.9-1,1.7-2,2.3-2.8C387.2,42.9,388.2,41.2,387.6,39.6z M237.2,34.7c0-0.6,0-1.4,0.1-2.3
					c0.1-0.9,0.2-1.9,0.4-2.9c0.2-1,0.5-2,0.9-2.9c0.4-1,0.9-1.9,1.5-2.7c0.7-0.8,1.5-1.5,2.5-2c1-0.5,2.2-0.8,3.5-0.8
					c0.7,0,1.7,0.3,2.5,1.7c0.5,1,0.8,2.2,0.8,3.6c0,1.1-0.4,2.2-1.2,3.3c-0.8,1-1.7,2-2.8,2.9c-1.1,0.9-2.3,1.6-3.6,2.2
					c-1.3,0.6-2.6,0.9-3.7,0.9h-0.9V34.7z M364.6,23.2l-2.4,11.5c-0.1,1-0.4,2.1-0.8,3.5c-0.4,1.4-0.9,2.8-1.6,4.1
					c-0.7,1.4-1.5,2.5-2.4,3.5c-1,1.1-2.2,1.6-3.5,1.6c-0.8,0-1.6-0.2-2.2-0.7c-0.5-0.4-1-0.9-1.3-1.6c-0.3-0.6-0.5-1.3-0.6-2
					c-0.1-0.7-0.2-1.4-0.2-2.2c0-1.3,0.2-2.7,0.5-4.2c0.3-1.5,0.8-3,1.4-4.4c0.6-1.4,1.4-2.9,2.2-4.2c0.9-1.3,1.8-2.5,2.8-3.6
					c1-1.1,2.2-1.9,3.4-2.5c0.8-0.4,1.7-0.7,2.5-0.9c0.6-0.1,1.1,0.1,1.5,0.5C364.6,22.1,364.7,22.6,364.6,23.2z"/>
			</g>
		</g>
		<g>
			<path class="st1" d="M167,72.5h8c1.6,0,3,0.2,4.3,0.6c1.2,0.4,2.3,0.9,3.2,1.5c0.9,0.6,1.6,1.3,2.2,2.1c0.6,0.8,1.1,1.6,1.4,2.5
				c0.3,0.8,0.6,1.7,0.7,2.5c0.2,0.8,0.2,1.6,0.2,2.3c0,1.5-0.3,2.9-0.8,4.3c-0.5,1.4-1.3,2.6-2.4,3.7c-1.1,1.1-2.4,1.9-3.9,2.6
				c-1.6,0.6-3.4,1-5.4,1H167V72.5z M170.1,92.5h3.9c1.3,0,2.6-0.2,3.7-0.5c1.2-0.4,2.2-0.9,3.1-1.6c0.9-0.7,1.6-1.6,2.1-2.7
				c0.5-1.1,0.8-2.3,0.8-3.7c0-0.7-0.1-1.6-0.4-2.6c-0.2-1-0.7-1.9-1.3-2.8c-0.7-0.9-1.6-1.6-2.7-2.3c-1.2-0.6-2.7-0.9-4.5-0.9h-4.7
				V92.5z"/>
			<path class="st1" d="M191.6,72.5h14.8v2.9h-11.7v6.8h10.9v2.9h-10.9v7.4H207v2.9h-15.4V72.5z"/>
			<path class="st1" d="M212.1,90.6c0.6,0.8,1.3,1.5,2.2,1.9c0.9,0.4,1.8,0.6,2.7,0.6c0.5,0,1-0.1,1.6-0.2c0.5-0.2,1-0.4,1.5-0.7
				c0.4-0.3,0.8-0.7,1.1-1.2c0.3-0.5,0.4-1,0.4-1.7c0-0.9-0.3-1.6-0.8-2c-0.6-0.5-1.3-0.9-2.1-1.2c-0.8-0.3-1.7-0.6-2.7-0.9
				s-1.9-0.7-2.7-1.2c-0.8-0.5-1.5-1.2-2.1-2.1c-0.6-0.9-0.8-2.1-0.8-3.6c0-0.7,0.1-1.4,0.4-2.1s0.8-1.4,1.4-2.1
				c0.6-0.6,1.4-1.2,2.4-1.6c1-0.4,2.2-0.6,3.6-0.6c1.3,0,2.5,0.2,3.6,0.5c1.1,0.3,2.2,1,3,2.1l-2.5,2.3c-0.4-0.6-0.9-1.1-1.7-1.5
				c-0.7-0.4-1.5-0.6-2.4-0.6c-0.9,0-1.6,0.1-2.2,0.3s-1,0.5-1.4,0.9c-0.3,0.4-0.6,0.7-0.7,1.2s-0.2,0.8-0.2,1.1
				c0,1,0.3,1.7,0.8,2.2c0.6,0.5,1.3,0.9,2.1,1.3c0.8,0.3,1.7,0.6,2.7,0.9c1,0.3,1.9,0.6,2.7,1.1c0.8,0.5,1.5,1.1,2.1,1.9
				c0.6,0.8,0.8,1.9,0.8,3.3c0,1.1-0.2,2.1-0.6,3c-0.4,0.9-1,1.6-1.7,2.2c-0.7,0.6-1.6,1.1-2.5,1.4c-1,0.3-2,0.5-3.1,0.5
				c-1.5,0-2.9-0.3-4.2-0.8c-1.3-0.5-2.4-1.3-3.1-2.4L212.1,90.6z"/>
			<path class="st1" d="M229.5,72.5h3.1v23h-3.1V72.5z"/>
			<path class="st1" d="M258.1,82.6v11.3c-0.6,0.3-1.2,0.6-1.9,0.9c-0.7,0.3-1.5,0.5-2.2,0.7s-1.5,0.3-2.3,0.4
				c-0.8,0.1-1.5,0.1-2.2,0.1c-1.9,0-3.7-0.3-5.2-1c-1.5-0.6-2.8-1.5-3.9-2.6c-1-1.1-1.8-2.4-2.4-3.8s-0.8-3-0.8-4.6
				c0-1.7,0.3-3.3,0.9-4.8c0.6-1.5,1.4-2.7,2.5-3.8c1-1.1,2.3-1.9,3.8-2.5c1.5-0.6,3.1-0.9,4.8-0.9c2.1,0,3.9,0.3,5.2,0.8
				c1.3,0.5,2.5,1.3,3.4,2.2l-2.2,2.4c-1-0.9-2-1.5-3-1.9c-1.1-0.4-2.2-0.5-3.3-0.5c-1.3,0-2.5,0.2-3.6,0.7c-1.1,0.5-2,1.1-2.7,2
				c-0.8,0.8-1.3,1.8-1.8,2.9c-0.4,1.1-0.6,2.3-0.6,3.6c0,1.3,0.2,2.5,0.7,3.6s1.1,2.1,1.9,2.9c0.8,0.8,1.7,1.5,2.8,1.9
				c1.1,0.5,2.3,0.7,3.5,0.7c1.1,0,2.1-0.1,3.1-0.3c1-0.2,1.8-0.5,2.5-0.9v-6.4h-5.1v-2.9H258.1z"/>
			<path class="st1" d="M263.7,72.5h4.1l12.7,18.9h0.1V72.5h3.1v23h-4l-12.8-18.9h-0.1v18.9h-3.1V72.5z"/>
			<path class="st1" d="M289.6,72.5h14.8v2.9h-11.7v6.8h10.9v2.9h-10.9v7.4H305v2.9h-15.4V72.5z"/>
			<path class="st1" d="M309.4,72.5h8.1c1.5,0,2.7,0.2,3.6,0.6c1,0.4,1.7,0.9,2.3,1.5c0.6,0.6,0.9,1.3,1.2,2.1
				c0.2,0.8,0.3,1.5,0.3,2.2c0,0.7-0.1,1.4-0.4,2.1c-0.3,0.7-0.6,1.3-1.1,1.8c-0.5,0.6-1.1,1-1.8,1.4c-0.7,0.4-1.5,0.6-2.4,0.7
				l6.5,10.5h-3.9L316,85.3h-3.5v10.1h-3.1V72.5z M312.5,82.6h4.1c0.6,0,1.2,0,1.8-0.1c0.6-0.1,1.1-0.3,1.6-0.5
				c0.5-0.3,0.8-0.6,1.1-1.1s0.4-1.1,0.4-1.9c0-0.8-0.1-1.4-0.4-1.9c-0.3-0.5-0.7-0.9-1.1-1.1c-0.5-0.3-1-0.4-1.6-0.5
				c-0.6-0.1-1.2-0.1-1.8-0.1h-4.1V82.6z"/>
		</g>
	</g>
	<g>
		<path class="st2" d="M116.2,43.9c-0.2-0.1-0.5-0.1-0.7-0.1c-7.4-0.7-14.6-0.2-21.9,1.3c-1.3-7-3.5-14.7-7.4-20.6
			c-3.1-4.6-6.4-3.4-10.5-1.2C72.4,17.8,66,7,60,7c-5.9,0-12,10.1-15.3,15.4c-3.7-2-6.6-2.5-9.5,1.6c-4,5.8-6.4,13.4-7.8,20.3
			c-7.1-1.8-16.5-3.7-23.3-1.5c-5.5,1.8-4,8-3.4,12.6c2,14.2,8.5,28.7,20.7,36.9c13.8,9.1,32,10,48,8.9c15.2-1,30.2-5.4,39.8-17.9
			c5.2-6.8,8.5-15,10.2-23.3C120.7,54.4,123.3,46.2,116.2,43.9z M48.6,81.5c-0.6-0.6-1.4-1.1-2.1-1.9c-2-2.1-3.7-4.4-5.2-6.8
			c-3.1-5.1-4.7-10.6-4.9-16.5c-0.1-4.9,0.7-9.9,2.1-14.6c0.4-1.4,1.6-7,3-7.7c2.7-1.5,6.1,2.8,7.8,4.3c1.4,1.3,4,2.9,4.2,4.8
			c0.2,1.9-2.4,4.9-3.2,6.8c-1.6,3.6-2.6,7.3-3.1,11.1C46.2,67.9,46.9,74.8,48.6,81.5z M23.5,81.2c-4.1-4.1-7.2-8.7-9.4-14.1
			c-1.3-3.2-3.5-8.2-3.2-11.8c0.3-4,2.9-2.7,5.6-2.4c1.9,0.2,7.8,0.4,9.2,2.1c1.6,2,1.2,9.2,2.1,12.2c2.2,7.7,6.7,14.6,12.2,20.4
			c0.5,0.5,1.4,1.6,2.3,2.6c-1-0.2-2-0.4-3-0.7C33.4,87.9,28.1,85.2,23.5,81.2z M96.6,82.1c-4.7,3.9-10,6.4-15.8,7.8
			c-1.1,0.3-2.7,0.3-3.9,0.8c1.2-1.1,2.9-2.3,3.3-2.7c5.6-5.6,10.3-12.5,12.6-20.1c0.6-2.1,1.1-4.3,1.4-6.5c0.1-0.8-0.1-4.1,0.4-4.9
			c1.5-2.2,14.9-4.3,15.3,0.2c0.3,3.9-2.5,9.7-4.2,13.1C103.4,74.4,100.4,78.5,96.6,82.1z M57.4,73.6c-0.8-5.4-0.7-11,1-16.3
			c1.6-5.3,4.6-9.9,8.3-14c2.5-2.8,8.8-9.9,12.4-9.2c3.1,0.6,5,13.8,5.2,16.3c0.5,4.8,0.2,9.9-1.2,14.5C79.8,75.4,71.3,83.4,62.1,89
			C59.9,88,57.6,75.2,57.4,73.6z M59.9,19.2c2.7,3.1,5.2,6.3,7.4,9.8c-2.4,1.9-4.6,3.9-6.8,6c-2.3-2.4-4.8-4.7-7.4-6.8
			C54,26.8,58.3,20.4,59.9,19.2z"/>
	</g>
	<g>
		<path class="st3" d="M141,97.3c-1.4,0-2.5-1.1-2.5-2.5V13.9c0-1.4,1.1-2.5,2.5-2.5s2.5,1.1,2.5,2.5v80.9
			C143.5,96.2,142.4,97.3,141,97.3z"/>
	</g>
</g>
</svg>
